<svg>
  <symbol id="logo" viewBox="0 0 61 32" fill="none" xmlns="http://www.w3.org/2000/svg">
    <mask id="mask0_1457_20131" style="mask-type:alpha" maskUnits="userSpaceOnUse" x="0" y="0" width="61" height="32">
      <ellipse cx="30.208" cy="16.0983" rx="30.208" ry="15.3025" fill="url(#paint0_linear_1457_20131)" />
    </mask>
    <g mask="url(#mask0_1457_20131)">
      <ellipse cx="30.208" cy="16.0983" rx="30.208" ry="15.3025" fill="url(#paint1_linear_1457_20131)" />
      <path
        d="M39.8129 20.345V3.33628C39.8129 3.07614 39.828 2.79304 39.8582 2.48699C39.9186 2.18094 39.9791 1.86723 40.0395 1.54588L12.3085 20.345H39.8129ZM65.4824 20.345V21.5386C65.4824 21.707 65.3766 21.8447 65.1652 21.9518C64.9839 22.0436 64.6819 22.0895 64.2589 22.0895H43.6191V31.4088H39.8129V22.0895H9.4992C9.04608 22.0895 8.69869 22.0436 8.45702 21.9518C8.21536 21.8447 8.04921 21.707 7.95859 21.5386L7.55078 20.4598L39.7676 -1.11676H43.6191V20.345H65.4824Z"
        fill="white" />
    </g>
    <defs>
      <linearGradient id="paint0_linear_1457_20131" x1="69.4784" y1="-8.38575" x2="52.1749" y2="43.0986"
        gradientUnits="userSpaceOnUse">
        <stop stop-color="#FF00AA" />
        <stop offset="1" stop-color="#8912DE" />
      </linearGradient>
      <linearGradient id="paint1_linear_1457_20131" x1="69.4784" y1="-8.38575" x2="52.1749" y2="43.0986"
        gradientUnits="userSpaceOnUse">
        <stop stop-color="#FF00AA" />
        <stop offset="1" stop-color="#8912DE" />
      </linearGradient>
    </defs>
  </symbol>

  <symbol id="logo-stat4market" viewBox="0 0 162 24" fill="none"
    xmlns="http://www.w3.org/2000/svg">
    <path
      d="M6.19337 23.2458C5.42854 23.2458 4.54687 23.1289 3.54834 22.8952L0.393433 22.0348L1.25386 19.4535C3.03846 20.0909 4.52562 20.4096 5.71535 20.4096C6.35271 20.4096 6.88384 20.2608 7.30874 19.9634C7.73364 19.666 7.94609 19.2623 7.94609 18.7524C7.94609 18.2426 7.808 17.8601 7.53181 17.6052C7.25563 17.3503 6.74574 17.1272 6.00216 16.936L4.2813 16.4898C1.90184 15.8737 0.712111 14.4715 0.712111 12.2833C0.712111 10.9661 1.21137 9.88258 2.2099 9.03277C3.22966 8.18296 4.55749 7.75806 6.19337 7.75806C6.85197 7.75806 7.62742 7.87491 8.51971 8.1086L11.6746 8.96903L10.8142 11.5503C9.09333 10.913 7.78676 10.5943 6.89446 10.5943C6.29959 10.5943 5.80033 10.7536 5.39667 11.0723C4.99301 11.3697 4.79119 11.7628 4.79119 12.2514C4.79119 12.7613 4.92928 13.1437 5.20547 13.3987C5.48165 13.6536 5.99154 13.8767 6.73512 14.0679L8.42411 14.514C9.69882 14.8539 10.6124 15.3745 11.1647 16.0755C11.7171 16.7554 11.9933 17.6371 11.9933 18.7206C11.9933 20.0165 11.5047 21.1 10.5274 21.9711C9.55011 22.8209 8.10543 23.2458 6.19337 23.2458ZM19.8228 23.2458C18.2294 23.2458 17.1034 22.8528 16.4448 22.0667C15.8075 21.2806 15.4888 20.0803 15.4888 18.4656V10.8492H13.1306V8.04487H15.4888V4.31634L19.536 3.51965V8.04487H23.0415V10.8492H19.536V18.5294C19.536 19.7828 20.0459 20.4096 21.0657 20.4096C21.6818 20.4096 22.3404 20.2184 23.0415 19.8359L23.6788 22.226C22.5103 22.9059 21.225 23.2458 19.8228 23.2458ZM29.7456 23.2458C28.301 23.2458 27.1537 22.7996 26.3039 21.9073C25.4541 21.0151 25.0292 19.9528 25.0292 18.7206C25.0292 17.807 25.3266 17.0741 25.9215 16.5217C26.5376 15.9481 27.4936 15.5019 28.7896 15.1832L33.9203 13.9085V12.602C33.9203 11.9858 33.7291 11.4972 33.3467 11.136C32.9855 10.7749 32.4756 10.5943 31.817 10.5943C31.0735 10.5943 29.3951 11.1573 26.7819 12.2833L25.6666 9.70199L29.2995 8.36355C30.4042 7.95989 31.2116 7.75806 31.7214 7.75806C33.6548 7.75806 35.1738 8.26794 36.2785 9.28771C37.4045 10.2862 37.9675 11.6034 37.9675 13.2393V18.7206C37.9675 19.1242 38.0313 19.7297 38.1587 20.537C38.3074 21.3231 38.4987 21.9923 38.7323 22.5447L35.2588 23.2458C34.8339 22.7784 34.3877 22.1304 33.9203 21.3019C32.4969 22.5978 31.1053 23.2458 29.7456 23.2458ZM31.1797 20.4096C32.0083 20.4096 32.9218 19.9315 33.9203 18.9755V15.7569L30.7335 16.681C29.7138 16.9785 29.2039 17.5415 29.2039 18.37C29.2039 19.0074 29.3845 19.5066 29.7456 19.8678C30.1068 20.229 30.5848 20.4096 31.1797 20.4096ZM46.3851 23.2458C44.7917 23.2458 43.6657 22.8528 43.0071 22.0667C42.3698 21.2806 42.0511 20.0803 42.0511 18.4656V10.8492H39.6929V8.04487H42.0511V4.31634L46.0983 3.51965V8.04487H49.6037V10.8492H46.0983V18.5294C46.0983 19.7828 46.6082 20.4096 47.6279 20.4096C48.244 20.4096 48.9026 20.2184 49.6037 19.8359L50.2411 22.226C49.0726 22.9059 47.7873 23.2458 46.3851 23.2458ZM91.3941 22.959H87.3469V14.2591C87.3469 12.9844 87.1557 12.0602 86.7733 11.4866C86.4121 10.8917 85.8278 10.5943 85.0205 10.5943C84.2132 10.5943 83.3422 11.0723 82.4074 12.0283V22.959H78.3602V14.2591C78.3602 12.9844 78.1796 12.0602 77.8184 11.4866C77.4572 10.8917 76.8624 10.5943 76.0338 10.5943C75.2477 10.5943 74.3767 11.0723 73.4207 12.0283V22.959H69.3735V12.2833C69.3735 11.8796 69.2991 11.2848 69.1504 10.4987C69.0229 9.69137 68.8423 9.01152 68.6086 8.45915L72.0503 7.75806C72.4965 8.20421 72.9533 8.85219 73.4207 9.70199C74.7591 8.40604 76.1507 7.75806 77.5953 7.75806C79.7411 7.75806 81.1964 8.51226 81.9612 10.0207C82.4286 9.40456 83.0978 8.87343 83.9689 8.42728C84.8399 7.98113 85.711 7.75806 86.582 7.75806C88.1967 7.75806 89.397 8.22545 90.1831 9.16024C90.9904 10.095 91.3941 11.5503 91.3941 13.5261V22.959ZM98.7418 23.2458C97.2972 23.2458 96.1499 22.7996 95.3001 21.9073C94.4503 21.0151 94.0254 19.9528 94.0254 18.7206C94.0254 17.807 94.3228 17.0741 94.9177 16.5217C95.5338 15.9481 96.4899 15.5019 97.7858 15.1832L102.917 13.9085V12.602C102.917 11.9858 102.725 11.4972 102.343 11.136C101.982 10.7749 101.472 10.5943 100.813 10.5943C100.07 10.5943 98.3913 11.1573 95.7781 12.2833L94.6628 9.70199L98.2957 8.36355C99.4004 7.95989 100.208 7.75806 100.718 7.75806C102.651 7.75806 104.17 8.26794 105.275 9.28771C106.401 10.2862 106.964 11.6034 106.964 13.2393V18.7206C106.964 19.1242 107.027 19.7297 107.155 20.537C107.304 21.3231 107.495 21.9923 107.729 22.5447L104.255 23.2458C103.83 22.7784 103.384 22.1304 102.917 21.3019C101.493 22.5978 100.102 23.2458 98.7418 23.2458ZM100.176 20.4096C101.004 20.4096 101.918 19.9315 102.917 18.9755V15.7569L99.7297 16.681C98.71 16.9785 98.2001 17.5415 98.2001 18.37C98.2001 19.0074 98.3807 19.5066 98.7418 19.8678C99.103 20.229 99.581 20.4096 100.176 20.4096ZM114.641 22.959H110.594V12.2833C110.594 11.8796 110.519 11.2848 110.371 10.4987C110.243 9.69137 110.063 9.01152 109.829 8.45915L113.271 7.75806C113.929 8.41666 114.386 9.30896 114.641 10.435C115.066 9.58514 115.629 8.92654 116.33 8.45915C117.052 7.99176 117.828 7.75806 118.656 7.75806C119.124 7.75806 119.549 7.83242 119.931 7.98113L119.23 11.4547H118.178C117.18 11.4547 116.394 11.699 115.82 12.1877C115.268 12.6551 114.875 13.4411 114.641 14.5459V22.959ZM135.686 22.959H130.714L125.775 15.247V22.959H121.727V1.67131L125.775 0.874621V14.1316L130.81 8.04487H135.367L129.376 14.7052L135.686 22.959ZM142.94 23.2458C140.539 23.2458 138.723 22.5341 137.49 21.1107C136.279 19.666 135.674 17.7752 135.674 15.4382C135.674 13.1012 136.301 11.2423 137.554 9.86133C138.808 8.45915 140.55 7.75806 142.78 7.75806C147.093 7.75806 149.25 9.99943 149.25 14.4822C149.25 14.9496 149.196 15.3426 149.09 15.6613H139.849C139.849 17.2547 140.135 18.4444 140.709 19.2305C141.304 20.0165 142.122 20.4096 143.163 20.4096C144.331 20.4096 145.861 19.9847 147.752 19.1349L148.867 21.7161L145.489 22.959C144.915 23.1502 144.066 23.2458 142.94 23.2458ZM142.557 10.5943C141.707 10.5943 141.038 10.8917 140.55 11.4866C140.082 12.0815 139.849 12.825 139.849 13.7173H145.043C145.043 11.6353 144.214 10.5943 142.557 10.5943ZM157.185 23.2458C155.592 23.2458 154.466 22.8528 153.807 22.0667C153.17 21.2806 152.851 20.0803 152.851 18.4656V10.8492H150.493V8.04487H152.851V4.31634L156.899 3.51965V8.04487H160.404V10.8492H156.899V18.5294C156.899 19.7828 157.408 20.4096 158.428 20.4096C159.044 20.4096 159.703 20.2184 160.404 19.8359L161.041 22.226C159.873 22.9059 158.588 23.2458 157.185 23.2458Z"
      fill="#54618E" />
    <path
      d="M64.7529 22.959H60.8969V18.0513H52.197L51.3365 15.5657L60.4189 2.56361H64.7529V15.0558H66.7924V18.0513H64.7529V22.959ZM60.8969 15.0558V6.77016L55.2563 15.0558H60.8969Z"
      fill="#D653D2" />
  </symbol>

  <symbol id="phone" viewBox="0 0 20 19" fill="none" xmlns="http://www.w3.org/2000/svg">
    <path
      d="M13.1225 13.327L14.7379 11.7116C14.9554 11.4967 15.2307 11.3496 15.5303 11.2882C15.8298 11.2267 16.1408 11.2536 16.4254 11.3654L18.3941 12.1515C18.6817 12.2682 18.9283 12.4675 19.1029 12.7242C19.2774 12.9808 19.3721 13.2834 19.3749 13.5938V17.1996C19.3732 17.4107 19.3288 17.6194 19.2444 17.8129C19.16 18.0064 19.0373 18.1809 18.8837 18.3257C18.73 18.4706 18.5487 18.5829 18.3505 18.6558C18.1524 18.7287 17.9415 18.7608 17.7307 18.7501C3.93494 17.8919 1.15128 6.20918 0.624838 1.73801C0.6004 1.51845 0.622729 1.2962 0.690354 1.08588C0.757979 0.875564 0.869369 0.681949 1.0172 0.517773C1.16502 0.353597 1.34593 0.222582 1.54803 0.133345C1.75013 0.0441085 1.96883 -0.00132632 2.18975 2.94729e-05H5.67293C5.98375 0.000949514 6.2872 0.094838 6.54423 0.269619C6.80126 0.444399 7.00012 0.692079 7.11524 0.980802L7.9013 2.94956C8.01687 3.23302 8.04635 3.54425 7.98607 3.84438C7.92579 4.1445 7.77842 4.42021 7.56236 4.63706L5.94697 6.25245C5.94697 6.25245 6.87726 12.5481 13.1225 13.327Z"
      fill="#331A2F" />
  </symbol>

  <symbol id="arrow-login" viewBox="0 0 23 23" fill="none" xmlns="http://www.w3.org/2000/svg">
    <path
      d="M1.80675 15.1776C1.22194 15.3995 0.922763 16.0567 1.20106 16.6169C2.19378 18.615 3.75079 20.2892 5.69037 21.4246C7.95702 22.7515 10.6096 23.2625 13.2069 22.8726C15.8043 22.4828 18.1899 21.2156 19.9672 19.2818C21.7445 17.348 22.8062 14.8641 22.976 12.2432C23.1457 9.62222 22.4132 7.02213 20.9002 4.87526C19.3871 2.72839 17.1849 1.16411 14.6595 0.442526C12.1341 -0.279056 9.4378 -0.114455 7.01895 0.908958C4.94913 1.78469 3.18919 3.24411 1.94705 5.09754C1.59882 5.61713 1.81074 6.30741 2.36204 6.60286C2.91335 6.89831 3.59437 6.68584 3.95504 6.17481C4.94393 4.77369 6.30844 3.66905 7.90155 2.99501C9.84398 2.17317 12.0092 2.04099 14.0372 2.62045C16.0651 3.1999 17.8337 4.45608 19.0487 6.18009C20.2637 7.90411 20.8519 9.99207 20.7156 12.0968C20.5793 14.2015 19.7267 16.1962 18.2995 17.7491C16.8723 19.302 14.9565 20.3196 12.8707 20.6326C10.7849 20.9457 8.65486 20.5353 6.83465 19.4698C5.34178 18.5959 4.13115 17.3245 3.33123 15.8076C3.03948 15.2543 2.39155 14.9558 1.80675 15.1776Z"
      fill="white" />
    <path
      d="M1.4375 10.6C0.940444 10.6 0.5375 11.0029 0.5375 11.5C0.5375 11.9971 0.940444 12.4 1.4375 12.4L1.4375 10.6ZM16.4489 12.1364C16.8004 11.7849 16.8004 11.2151 16.4489 10.8636L10.7213 5.13604C10.3699 4.78457 9.80001 4.78457 9.44854 5.13604C9.09707 5.48751 9.09707 6.05736 9.44854 6.40883L14.5397 11.5L9.44854 16.5912C9.09707 16.9426 9.09707 17.5125 9.44854 17.864C9.80001 18.2154 10.3699 18.2154 10.7213 17.864L16.4489 12.1364ZM1.4375 12.4L15.8125 12.4V10.6L1.4375 10.6L1.4375 12.4Z"
      fill="white" />
  </symbol>

  <symbol id="purse" viewBox="0 0 48 47" fill="none" xmlns="http://www.w3.org/2000/svg">
    <path d="M0 43.075C0 36.4 0 29.8 0 23.125C0.3 22.15 1.05 21.625 1.875 21.175C2.175 21.025 2.475 20.875 2.775 20.8C3.15 20.725 3.225 20.5 3.225 20.2C3.225 15.475 3.225 10.825 3.225 6.1C3.225 2.725 5.625 0.25 8.85 0.25C19.95 0.25 31.125 0.25 42.225 0.25C43.8 0.25 44.775 1.225 44.775 2.875C44.775 5.05 44.775 7.225 44.775 9.4C44.775 9.55 44.775 9.775 44.775 9.925C47.025 10.675 48 11.95 48 14.275C48 22 48 29.8 48 37.525C48 37.975 48 38.425 47.85 38.875C47.4 40.675 45.825 41.875 43.8 41.875C37.125 41.875 30.525 41.875 23.85 41.875C23.625 41.875 23.475 41.875 23.25 41.875C23.25 41.95 23.25 41.95 23.25 41.95C23.25 42.025 23.25 42.1 23.25 42.175C23.325 43.3 22.8 44.125 21.825 44.65C21 45.1 20.1 45.475 19.275 45.7C16.875 46.375 14.325 46.6 11.85 46.6C8.925 46.6 6 46.375 3.15 45.4C1.8 45.025 0.525 44.5 0 43.075ZM46.425 21.85C46.425 21.625 46.425 21.475 46.425 21.325C46.425 18.925 46.425 16.525 46.425 14.125C46.425 12.4 45.45 11.425 43.725 11.425C32.175 11.425 20.55 11.425 9 11.425C7.5 11.425 6.15 10.975 5.025 10C4.95 9.925 4.875 9.925 4.8 9.85C4.8 13.3 4.8 16.675 4.8 20.05C4.95 20.05 5.1 20.05 5.25 19.975C9.225 19.15 13.2 19.15 17.25 19.825C18.825 20.05 20.4 20.5 21.825 21.325C22.725 22 23.25 22.75 23.25 23.95C23.175 29.2 23.25 34.375 23.25 39.625C23.25 39.85 23.25 40 23.25 40.225C23.4 40.225 23.55 40.225 23.7 40.225C30.45 40.225 37.125 40.225 43.875 40.225C45.45 40.225 46.5 39.25 46.5 37.6C46.5 35.2 46.5 32.725 46.5 30.325C46.5 30.175 46.5 30.025 46.5 29.875C45.225 29.875 43.95 29.875 42.75 29.875C42.15 29.875 41.55 29.8 40.95 29.575C39.225 28.9 38.25 26.95 38.625 25.15C39 23.275 40.575 21.925 42.45 21.925C43.65 21.85 45 21.85 46.425 21.85ZM43.2 6.625C42.975 6.625 42.75 6.625 42.525 6.625C30.9 6.625 19.2 6.625 7.575 6.625C6.75 6.625 6.375 6.325 6.375 5.8C6.375 5.275 6.75 4.975 7.575 4.975C19.2 4.975 30.9 4.975 42.525 4.975C42.75 4.975 42.9 4.975 43.2 4.975C43.2 4.225 43.2 3.55 43.2 2.95C43.2 2.05 42.975 1.825 42.075 1.825C31.05 1.825 20.1 1.825 9.075 1.825C8.7 1.825 8.325 1.825 8.025 1.9C6 2.35 4.65 4.225 4.8 6.1C5.025 8.2 6.675 9.775 8.775 9.775C20.1 9.775 31.425 9.775 42.825 9.775C42.975 9.775 43.05 9.775 43.2 9.7C43.2 8.8 43.2 7.75 43.2 6.625ZM11.625 21.025C9.375 21.025 7.125 21.175 4.95 21.775C3.975 22.075 3 22.45 2.1 22.9C1.425 23.275 1.425 23.65 2.1 24.025C2.625 24.325 3.15 24.55 3.675 24.775C5.4 25.375 7.125 25.6 8.925 25.75C12.075 25.975 15.225 25.9 18.375 25.15C19.275 24.925 20.175 24.55 21.075 24.1C21.825 23.725 21.825 23.275 21.075 22.825C20.625 22.525 20.1 22.3 19.575 22.15C16.95 21.25 14.325 21.1 11.625 21.025ZM1.575 25.675C1.575 26.35 1.65 27.025 1.575 27.7C1.5 28.3 1.8 28.75 2.325 28.975C3.45 29.35 4.5 29.875 5.7 30.1C8.85 30.775 12 30.775 15.225 30.475C17.025 30.325 18.75 29.95 20.475 29.275C21.3 28.9 21.825 28.45 21.675 27.4C21.6 26.875 21.675 26.275 21.675 25.75C15.15 28.075 7.875 28.075 1.575 25.675ZM1.575 35.275C1.575 36.025 1.65 36.7 1.575 37.375C1.575 37.975 1.8 38.35 2.25 38.5C3.075 38.875 3.9 39.25 4.8 39.475C9 40.525 13.275 40.45 17.55 39.7C18.75 39.475 19.95 39.175 21 38.5C21.225 38.35 21.6 38.125 21.6 37.825C21.675 37 21.6 36.1 21.6 35.2C18.375 36.7 15 37 11.625 37C8.175 37.075 4.8 36.775 1.575 35.275ZM1.575 40.075C1.575 40.825 1.575 41.5 1.575 42.25C1.575 42.775 1.725 43.15 2.175 43.375C3 43.75 3.75 44.125 4.575 44.35C8.85 45.4 13.2 45.4 17.55 44.575C18.675 44.35 19.8 43.825 20.925 43.45C21.15 43.375 21.525 43.075 21.525 42.85C21.6 42.025 21.525 41.125 21.525 40.225C15.225 42.475 7.875 42.475 1.575 40.075ZM21.6 30.475C18.375 31.975 15 32.275 11.625 32.275C8.25 32.275 4.8 31.975 1.65 30.475C1.65 31.3 1.65 32.05 1.65 32.8C1.65 33.175 1.8 33.475 2.1 33.625C2.7 33.925 3.3 34.225 3.9 34.45C5.85 35.125 7.95 35.35 9.975 35.425C12.825 35.575 15.675 35.425 18.45 34.675C19.35 34.45 20.25 34 21.075 33.625C21.3 33.55 21.6 33.175 21.6 32.95C21.6 32.2 21.6 31.375 21.6 30.475ZM46.35 28.225C46.35 26.575 46.35 25 46.35 23.425C44.925 23.425 43.575 23.425 42.225 23.425C41.025 23.5 40.05 24.55 40.05 25.75C40.05 26.95 40.95 28.075 42.15 28.15C43.5 28.3 44.925 28.225 46.35 28.225Z" fill="#CF51CE" />
    <path d="M38.0253 14.6505C36.0753 14.6505 34.1253 14.6505 32.2503 14.6505C31.9503 14.6505 31.6503 14.5005 31.4253 14.3505C31.2753 14.2005 31.2003 13.7505 31.3503 13.6005C31.5003 13.3755 31.8003 13.1505 32.1003 13.1505C32.7003 13.0755 33.3003 13.1505 33.9003 13.1505C37.2003 13.1505 40.4253 13.1505 43.7253 13.1505C43.8753 13.1505 43.9503 13.1505 44.1003 13.1505C44.5503 13.2255 44.9253 13.5255 44.9253 13.9755C44.9253 14.4255 44.5503 14.7255 44.1003 14.7255C42.6753 14.7255 41.3253 14.7255 39.9003 14.7255C39.2253 14.6505 38.6253 14.6505 38.0253 14.6505Z" fill="#CF51CE" />
    <path d="M27.9744 14.6512C27.6744 14.6512 27.3744 14.6512 27.1494 14.6512C26.6994 14.6512 26.3994 14.3512 26.3994 13.9012C26.3994 13.4512 26.6994 13.0762 27.1494 13.0762C27.7494 13.0762 28.2744 13.0762 28.8744 13.0762C29.3244 13.0762 29.6244 13.4512 29.6244 13.9012C29.6244 14.3512 29.2494 14.6512 28.7994 14.6512C28.4994 14.6512 28.2744 14.6512 27.9744 14.6512Z" fill="#CF51CE" />
    <path d="M42.3738 26.65C41.9238 26.65 41.5488 26.275 41.5488 25.825C41.5488 25.375 41.9238 25 42.3738 25C42.8238 25 43.1238 25.375 43.1238 25.75C43.1988 26.275 42.8238 26.65 42.3738 26.65Z" fill="#CF51CE" />
  </symbol>
</svg>